<?xml version="1.0" encoding="UTF-8"?>
<svg xmlns="http://www.w3.org/2000/svg" xmlns:xlink="http://www.w3.org/1999/xlink" width="2704.77pt" height="1313.02pt" viewBox="0 0 2704.77 1313.02" version="1.1">
<defs>
<clipPath id="clip1">
  <path d="M 462 1312 L 463 1312 L 463 1313.019531 L 462 1313.019531 Z M 462 1312 "/>
</clipPath>
<clipPath id="clip2">
  <path d="M 212 0.0195313 L 714 0.0195313 L 714 296 L 212 296 Z M 212 0.0195313 "/>
</clipPath>
</defs>
<g id="surface1">
<path style=" stroke:none;fill-rule:nonzero;fill:rgb(69.398499%,24.699402%,26.699829%);fill-opacity:1;" d="M 1362.589844 1108.460938 C 1241.371094 1108.460938 1146.988281 1090.621094 1081.96875 1057.460938 L 1081.929688 256.859375 C 1140.601563 226.230469 1237.578125 205.890625 1352.328125 205.890625 C 1583.25 205.890625 1690.378906 307.871094 1690.378906 439.167969 C 1690.378906 553.886719 1603.621094 615.046875 1533.480469 632.925781 L 1533.480469 635.488281 C 1612.578125 655.863281 1715.878906 732.367188 1715.878906 853.445313 C 1715.878906 1028.128906 1580.648438 1108.460938 1362.589844 1108.460938 M 1278.359375 972 C 1298.769531 979.65625 1323 984.714844 1357.460938 984.714844 C 1453.140625 984.714844 1509.269531 946.5625 1509.269531 845.785156 C 1509.269531 741.320313 1460.730469 690.316406 1319.210938 690.316406 L 1278.359375 690.316406 L 1278.359375 972 M 1278.359375 590.839844 L 1319.171875 590.839844 C 1449.28125 590.839844 1492.589844 548.761719 1492.589844 453.179688 C 1492.589844 363.925781 1448.050781 321.878906 1353.601563 321.878906 C 1323 321.878906 1301.328125 324.410156 1278.359375 332.066406 L 1278.359375 590.839844 "/>
<path style=" stroke:none;fill-rule:nonzero;fill:rgb(69.398499%,24.699402%,26.699829%);fill-opacity:1;" d="M 2497.058594 1095.679688 L 2703.679688 1095.679688 L 2703.679688 218.609375 L 2497.058594 218.609375 Z M 2497.058594 1095.679688 "/>
<path style=" stroke:none;fill-rule:nonzero;fill:rgb(69.398499%,24.699402%,26.699829%);fill-opacity:1;" d="M 2008.160156 1095.679688 L 1805.378906 1095.679688 L 1805.308594 256.859375 C 1867.871094 226.230469 1960.980469 205.890625 2071.949219 205.890625 C 2315.539063 205.890625 2409.960938 329.5 2409.960938 486.308594 C 2409.960938 638.351563 2316.238281 770.765625 2093.449219 770.761719 C 2075.25 770.761719 2056.191406 769.878906 2036.261719 768.050781 L 2008.160156 765.523438 L 2008.160156 1095.679688 M 2008.160156 646.96875 L 2036.261719 648.238281 C 2043.050781 648.574219 2049.609375 648.738281 2055.949219 648.738281 C 2171.089844 648.738281 2213.539063 593.769531 2213.539063 485.046875 C 2213.539063 375.410156 2175.25 323.148438 2070.71875 323.148438 C 2042.609375 323.148438 2019.648438 328.238281 2008.160156 333.332031 L 2008.160156 646.96875 "/>
<g clip-path="url(#clip1)" clip-rule="nonzero">
<path style=" stroke:none;fill-rule:nonzero;fill:rgb(75.299072%,62.399292%,30.198669%);fill-opacity:1;" d="M 462.410156 1313.019531 C 462.410156 1313.019531 462.367188 1313 462.285156 1312.949219 L 462.535156 1312.949219 C 462.492188 1312.980469 462.453125 1313 462.410156 1313.019531 "/>
</g>
<path style=" stroke:none;fill-rule:nonzero;fill:rgb(75.299072%,62.399292%,30.198669%);fill-opacity:1;" d="M 462.535156 1312.949219 L 462.285156 1312.949219 C 454.519531 1308.441406 88.640625 1095.699219 47.179688 1066.351563 C 20.75 1047.609375 10.941406 1032.910156 6.425781 1022.320313 C 1.828125 1011.570313 0.148438 1001.890625 0 993.039063 L 0 990.386719 C 0.160156 980.710938 2.042969 972.042969 3.730469 964.066406 C 6.257813 952.308594 110.484375 519.261719 110.484375 519.261719 C 111.257813 516.605469 111.601563 514.203125 111.601563 512.019531 C 111.601563 493.136719 85.667969 491.160156 85.667969 491.160156 L 85.667969 455.578125 L 250.296875 281.101563 L 300.753906 281.101563 L 279.699219 302.191406 C 276.347656 305.519531 273.015625 311.578125 273.011719 317.933594 C 273.007813 325.777344 278.09375 334.066406 294.535156 338.1875 L 629.644531 338.1875 C 646.101563 334.066406 651.183594 325.777344 651.179688 317.933594 C 651.179688 311.578125 647.847656 305.519531 644.515625 302.191406 L 623.417969 281.101563 L 673.875 281.101563 L 838.542969 455.578125 L 838.542969 491.125 C 838.542969 491.125 812.578125 493.132813 812.574219 512.019531 C 812.574219 514.199219 812.917969 516.605469 813.691406 519.261719 C 813.691406 519.261719 917.132813 952.582031 920.414063 964.066406 C 921.570313 968.070313 923.148438 976.398438 923.152344 986.847656 C 923.15625 995.304688 922.132813 1005.140625 919.011719 1015.210938 C 914.808594 1028.75 901.957031 1046.519531 893.136719 1054.25 C 867.3125 1076.691406 482.824219 1300.980469 462.535156 1312.949219 M 47.757813 1004.75 C 48.269531 1017.390625 55.074219 1024.78125 64.953125 1032.710938 C 85.941406 1049.519531 462.074219 1267.898438 462.074219 1267.898438 C 462.074219 1267.898438 838.238281 1049.519531 859.222656 1032.710938 C 869.105469 1024.78125 874.949219 1015 878.195313 1004.609375 L 685.464844 1004.609375 C 667.691406 1026.558594 644.925781 1037.699219 623.417969 1049.25 C 601.921875 1060.878906 462.074219 1140.800781 462.074219 1140.800781 C 462.074219 1140.800781 322.257813 1060.878906 300.753906 1049.25 C 279.253906 1037.699219 256.488281 1026.558594 238.679688 1004.609375 L 47.757813 1004.75 M 480.566406 1088.5 L 620.960938 1008.78125 C 640 997.980469 649.882813 979.792969 649.882813 960.785156 L 649.882813 671.382813 L 480.566406 671.382813 L 480.566406 1088.5 M 274.296875 960.785156 C 274.296875 979.792969 284.210938 997.980469 303.253906 1008.78125 L 445.460938 1087.46875 L 445.800781 671.382813 L 274.296875 671.382813 L 274.296875 960.785156 M 880.589844 964.886719 C 879.5625 956.683594 877.957031 949.230469 876.558594 943.421875 C 873.683594 931.042969 838.167969 787.132813 809.382813 670.558594 L 689.636719 670.558594 L 689.636719 964.886719 L 880.589844 964.886719 M 43.585938 964.886719 L 234.574219 964.886719 L 234.574219 670.558594 L 114.757813 670.558594 C 86.011719 787.132813 50.527344 931.042969 47.621094 943.421875 C 46.21875 949.230469 44.613281 956.683594 43.585938 964.886719 M 800.839844 635.828125 L 791.742188 599.113281 L 132.328125 599.421875 L 123.371094 635.828125 L 800.839844 635.828125 M 140.90625 564.726563 L 783.164063 564.453125 L 772.324219 520.492188 C 770.449219 514.484375 769.652344 508.960938 769.648438 503.90625 C 769.648438 475.589844 794.6875 462.175781 794.6875 462.175781 L 681.742188 341.878906 C 678.011719 369.15625 664.375 376.574219 648.242188 376.574219 L 275.9375 376.609375 C 259.769531 376.609375 246.160156 369.15625 242.472656 341.878906 L 129.492188 462.175781 C 129.492188 462.175781 154.53125 475.589844 154.527344 503.90625 C 154.523438 508.960938 153.726563 514.484375 151.847656 520.492188 L 140.90625 564.726563 "/>
<path style=" stroke:none;fill-rule:nonzero;fill:rgb(75.299072%,62.399292%,30.198669%);fill-opacity:1;" d="M 525.914063 974.71875 C 523.191406 974.71875 520.324219 973.914063 518.101563 971.863281 C 516.378906 970.265625 515.78125 968.019531 515.785156 965.859375 C 515.789063 963.21875 516.6875 960.707031 517.515625 959.6875 C 518.304688 958.757813 518.671875 957.566406 518.671875 956.257813 C 518.667969 955.066406 518.363281 953.78125 517.792969 952.511719 C 517.175781 951.058594 516.800781 949.546875 516.800781 948.050781 C 516.804688 946.730469 517.101563 945.421875 517.792969 944.171875 C 519.019531 941.992188 521.917969 939.035156 525.492188 939.035156 C 526.289063 939.035156 527.121094 939.183594 527.976563 939.523438 C 529.542969 940.175781 530.875 940.449219 532.082031 940.449219 C 534.167969 940.449219 535.882813 939.625 537.789063 938.496094 C 540.765625 936.722656 546.097656 929.195313 547.871094 927.761719 C 549.617188 926.289063 556.222656 920.082031 556.222656 913.847656 C 556.222656 913.722656 556.222656 913.597656 556.214844 913.472656 C 555.875 904.246094 547.601563 899.253906 543.121094 892.621094 C 540.847656 889.285156 539.730469 886.113281 539.726563 882.867188 C 539.722656 879.71875 540.761719 876.5 542.816406 873 C 546.421875 866.851563 555.117188 865.457031 561.472656 865.457031 C 562.464844 865.457031 563.398438 865.492188 564.246094 865.546875 C 569.613281 865.890625 575.085938 866.300781 582.503906 869.445313 C 586.105469 870.949219 587.574219 872.84375 587.574219 874.648438 C 587.578125 877.261719 584.496094 879.683594 580.347656 880.449219 C 572.929688 881.75 570.574219 885.582031 569.171875 888.589844 C 568.535156 889.9375 568.328125 891.203125 568.328125 892.285156 C 568.328125 894.277344 569.03125 895.628906 569.03125 895.628906 C 569.921875 890.230469 571.734375 888.3125 573.957031 885.988281 C 576.554688 883.253906 584.277344 882.433594 587.871094 880.316406 C 591.261719 878.308594 591.355469 873.316406 591.355469 872.773438 C 591.355469 872.742188 591.355469 872.726563 591.355469 872.726563 C 585.714844 869.171875 571.429688 860.828125 566.949219 858.097656 C 562.46875 855.425781 555.324219 846.8125 553.511719 842.917969 C 552.511719 840.761719 550.648438 839.734375 548.863281 839.734375 C 547.480469 839.734375 546.148438 840.351563 545.308594 841.546875 C 544.148438 845.925781 538.027344 848.59375 535.058594 849.753906 C 532.113281 850.984375 531.808594 851.53125 531.191406 855.085938 C 530.613281 858.710938 532.113281 864.386719 524.117188 866.847656 C 523.257813 867.117188 522.445313 867.226563 521.6875 867.226563 C 519.710938 867.226563 518.054688 866.472656 516.617188 865.714844 C 515.183594 864.960938 513.964844 864.203125 512.855469 864.203125 C 512.554688 864.203125 512.261719 864.261719 511.976563 864.386719 C 510.3125 865.117188 508.152344 865.511719 505.972656 865.511719 C 502.46875 865.511719 498.910156 864.5 497.246094 862.265625 C 495.898438 860.449219 495.40625 858.550781 495.40625 856.707031 C 495.402344 853.121094 497.246094 849.734375 498.238281 847.566406 C 498.585938 846.8125 498.703125 845.96875 498.703125 845.070313 C 498.707031 843.230469 498.222656 841.160156 498.21875 839.160156 C 498.21875 837.902344 498.40625 836.667969 499.027344 835.53125 C 500.539063 832.75 502.996094 831.082031 506.414063 831.082031 C 507.773438 831.082031 509.285156 831.347656 510.953125 831.910156 C 513.128906 832.609375 514.109375 834.328125 518.097656 834.328125 C 518.378906 834.328125 518.675781 834.320313 518.988281 834.304688 C 523.773438 834.03125 530.921875 825.960938 530.921875 825.960938 C 530.84375 825.710938 530.808594 825.457031 530.808594 825.203125 C 530.800781 823.347656 532.601563 821.449219 534.167969 821.449219 C 535.976563 821.449219 536.832031 822.679688 536.832031 822.679688 C 536.832031 822.679688 539.535156 820.355469 541.648438 819.125 C 542.246094 818.769531 542.945313 818.640625 543.636719 818.640625 C 545.332031 818.640625 546.984375 819.398438 546.984375 819.398438 L 544.894531 816.460938 C 544.332031 816.578125 543.757813 816.636719 543.183594 816.636719 C 540.734375 816.636719 538.300781 815.558594 536.832031 813.171875 C 536.574219 812.726563 536.464844 812.328125 536.464844 811.976563 C 536.46875 809.941406 540.113281 809.347656 540.113281 809.347656 C 538.871094 808.21875 538.542969 806.890625 538.542969 805.800781 C 538.542969 804.589844 538.949219 803.675781 538.949219 803.675781 C 538.171875 803.949219 537.476563 804.074219 536.855469 804.074219 C 532.257813 804.074219 531.808594 797.382813 531.808594 797.382813 L 528.5625 797.382813 C 527.640625 799.777344 526.164063 801.554688 524.355469 802.167969 C 524.238281 802.203125 524.125 802.21875 524.011719 802.21875 C 522.425781 802.222656 521.359375 798.734375 521.074219 796.492188 C 520.765625 794.101563 518.988281 792.050781 517.210938 791.777344 C 515.433594 791.363281 513.316406 791.363281 512.734375 788.15625 C 512.152344 784.875 511.398438 782.136719 508.695313 781.246094 C 507.914063 780.988281 507.125 780.886719 506.308594 780.886719 C 504.320313 780.886719 502.1875 781.496094 499.640625 781.933594 C 499.402344 781.96875 499.160156 781.988281 498.90625 781.988281 C 496.039063 781.988281 492.351563 779.703125 492.347656 776.292969 C 492.34375 775.453125 492.566406 774.546875 493.074219 773.589844 C 494.433594 771.046875 494.929688 769.03125 494.929688 767.164063 C 494.925781 764.566406 493.949219 762.257813 492.972656 759.234375 C 492.613281 758.054688 492.453125 756.992188 492.453125 756.035156 C 492.464844 751.976563 495.390625 749.71875 498.511719 748.226563 C 499.425781 747.792969 500.382813 747.621094 501.355469 747.621094 C 504.53125 747.621094 507.890625 749.460938 510.613281 750.144531 C 511.164063 750.28125 511.71875 750.335938 512.269531 750.335938 C 513.683594 750.335938 515.074219 749.957031 516.386719 749.578125 C 517.699219 749.203125 518.929688 748.824219 520.023438 748.824219 C 520.171875 748.824219 520.316406 748.828125 520.457031 748.84375 C 525.460938 749.433594 526.800781 752.707031 526.804688 755.816406 C 526.808594 757.746094 526.296875 759.609375 525.824219 760.734375 C 525.011719 762.839844 524.035156 764.8125 524.03125 767.113281 C 524.03125 768.105469 524.210938 769.15625 524.664063 770.308594 C 526.164063 774.140625 532.523438 778.515625 538.164063 782.613281 C 540.347656 784.242188 542.175781 784.804688 543.71875 784.804688 C 546.1875 784.804688 547.925781 783.371094 549.203125 782.613281 C 551.257813 781.453125 553.511719 779.8125 556.523438 779.8125 C 559.328125 779.8125 559.894531 780.84375 559.894531 782.730469 C 559.894531 784.007813 559.636719 785.671875 559.636719 787.675781 C 559.636719 788.050781 559.644531 788.4375 559.667969 788.835938 C 559.824219 791.714844 561.402344 792.953125 563.328125 792.953125 C 565.164063 792.953125 567.3125 791.832031 568.863281 789.933594 C 570.9375 787.667969 572.476563 786.84375 573.625 786.84375 C 575.84375 786.84375 576.628906 789.90625 577.101563 791.574219 C 577.714844 793.640625 578.664063 795.738281 580.257813 795.738281 C 580.878906 795.738281 581.597656 795.417969 582.433594 794.652344 C 584.140625 793.144531 589.269531 790.277344 594.910156 787.882813 C 597.183594 786.914063 598.355469 786.15625 598.355469 785.8125 C 598.359375 785.679688 598.1875 785.605469 597.84375 785.605469 C 597.246094 785.605469 596.128906 785.820313 594.46875 786.308594 C 589.835938 787.796875 587.007813 790.101563 584.195313 790.101563 C 583.769531 790.101563 583.34375 790.050781 582.910156 789.933594 C 581.324219 789.496094 580.824219 788.214844 580.824219 786.847656 C 580.828125 785.417969 581.378906 783.898438 581.816406 783.164063 C 582.125 782.644531 582.316406 782.015625 582.316406 781.472656 C 582.320313 780.75 581.984375 780.171875 581.121094 780.171875 C 580.675781 780.171875 580.082031 780.328125 579.324219 780.703125 C 576.726563 782 574.605469 783.433594 571.632813 786.035156 C 570.207031 787.328125 567.839844 788.472656 565.777344 788.472656 C 564.671875 788.472656 563.652344 788.144531 562.914063 787.335938 C 562.378906 786.703125 562.160156 786.027344 562.160156 785.316406 C 562.160156 782.945313 564.59375 780.21875 565.753906 777.691406 C 566.003906 777.160156 566.113281 776.714844 566.109375 776.347656 C 566.105469 775.265625 565.148438 774.863281 564.007813 774.863281 C 563.199219 774.863281 562.304688 775.0625 561.582031 775.371094 C 559.660156 776.179688 559.257813 777.320313 555.644531 777.320313 C 555.277344 777.320313 554.875 777.308594 554.4375 777.285156 C 551.96875 777.144531 550.765625 776.058594 550.757813 774.511719 C 550.753906 773.0625 551.804688 771.207031 553.855469 769.351563 C 558.269531 765.523438 575.597656 761.699219 575.597656 761.699219 C 573.753906 761.171875 573.1875 760.339844 573.191406 759.519531 C 573.191406 758.203125 574.640625 756.910156 574.640625 756.910156 C 576.195313 757.878906 577.308594 758.253906 578.085938 758.253906 C 579.242188 758.253906 579.648438 757.421875 579.644531 756.507813 C 579.644531 756.136719 579.574219 755.753906 579.460938 755.40625 C 578.882813 753.628906 577.269531 751.984375 573.203125 751.234375 C 569.339844 751.234375 564.179688 749.253906 562.914063 747.683594 C 561.082031 745.292969 560.585938 741.371094 560.585938 738.652344 C 560.585938 738.179688 560.601563 737.742188 560.625 737.355469 C 560.898438 732.433594 564.347656 731.476563 568.722656 731 C 570.492188 730.765625 572.226563 730.628906 574.359375 730.628906 C 575.363281 730.628906 576.457031 730.660156 577.683594 730.726563 C 579.453125 731.902344 581.1875 732.203125 582.492188 732.203125 C 583.835938 732.203125 584.726563 731.886719 584.726563 731.886719 C 586.386719 730.769531 587.59375 730.40625 588.527344 730.40625 C 590.109375 730.40625 590.910156 731.441406 591.832031 731.613281 C 593.375 731.886719 596.277344 731.886719 596.277344 731.886719 C 600.414063 732.15625 600.109375 733.9375 604.6875 739.820313 C 610.808594 747.683594 610.429688 756.5 611.628906 760.734375 C 612.117188 762.621094 612.765625 763.328125 613.335938 763.328125 C 613.714844 763.328125 614.058594 763.007813 614.296875 762.515625 C 614.859375 761.390625 615.164063 757.785156 617.894531 757.785156 C 617.992188 757.785156 618.089844 757.789063 618.191406 757.800781 C 618.285156 757.808594 618.378906 757.8125 618.46875 757.8125 C 621.261719 757.8125 622.746094 753.816406 625.03125 751.234375 C 627.421875 748.570313 627.726563 745.5625 627.726563 741.117188 C 627.726563 737.230469 631.675781 733.710938 637.167969 733.710938 C 637.957031 733.710938 638.777344 733.785156 639.625 733.9375 C 641.996094 734.425781 643.035156 735.027344 643.039063 735.699219 C 643.042969 736.628906 641.035156 737.6875 637.8125 738.71875 C 635.023438 739.679688 633.972656 742.910156 633.972656 745.695313 C 633.972656 747.285156 634.316406 748.726563 634.875 749.523438 C 636.34375 751.574219 637.8125 758.410156 638.460938 763.472656 C 638.773438 766.199219 639.257813 770.398438 639.261719 774.71875 C 639.261719 778.410156 638.914063 782.1875 637.8125 785.214844 C 635.417969 791.777344 631.28125 802.988281 629.777344 810.167969 C 629.496094 811.546875 629.378906 812.683594 629.378906 813.605469 C 629.386719 816.324219 630.425781 817.234375 631.378906 817.234375 C 631.789063 817.234375 632.1875 817.066406 632.476563 816.800781 C 633.679688 815.570313 634.460938 813.792969 636.207031 813.109375 C 636.820313 812.839844 637.429688 812.71875 638.007813 812.71875 C 640.007813 812.71875 641.609375 814.199219 641.617188 816.332031 C 641.617188 816.738281 641.558594 817.167969 641.4375 817.617188 C 640.785156 817.113281 640.265625 816.894531 639.828125 816.894531 C 637.855469 816.894531 637.675781 821.324219 635.65625 823.230469 C 635.527344 823.570313 635.476563 823.894531 635.476563 824.207031 C 635.480469 826.101563 637.515625 827.53125 637.523438 829.207031 C 637.527344 829.695313 637.363281 830.199219 636.925781 830.746094 C 635.765625 832.882813 635.34375 834.402344 635.34375 835.484375 C 635.34375 837.933594 637.507813 838.136719 638.230469 838.136719 C 638.375 838.136719 638.460938 838.128906 638.460938 838.128906 C 638.460938 838.128906 640.890625 834.710938 642.699219 833.828125 C 642.925781 833.714844 643.136719 833.65625 643.335938 833.65625 C 644.183594 833.65625 644.769531 834.699219 644.773438 836.808594 C 644.773438 838.074219 644.5625 839.722656 644.066406 841.757813 C 642.664063 845.832031 642.332031 849.65625 642.332031 853.195313 C 642.332031 856.367188 642.597656 859.308594 642.597656 861.988281 C 642.609375 863.875 642.753906 865.449219 642.753906 867.050781 C 642.757813 870.273438 642.183594 873.601563 638.800781 879.765625 C 634.0625 888.484375 622.800781 888.726563 619.828125 888.726563 C 619.652344 888.726563 619.503906 888.726563 619.390625 888.726563 C 618.6875 888.726563 617.710938 888.5625 616.851563 888.5625 C 615.792969 888.5625 614.90625 888.808594 614.910156 889.894531 C 614.914063 890.558594 615.246094 891.539063 616.074219 892.964844 C 619.390625 898.566406 625.914063 900.6875 629.472656 901.304688 C 630.023438 901.386719 630.523438 901.421875 630.984375 901.421875 C 631.757813 901.421875 632.425781 901.332031 633.078125 901.242188 C 633.730469 901.152344 634.363281 901.0625 635.054688 901.0625 C 635.960938 901.0625 636.96875 901.214844 638.257813 901.71875 C 639.253906 902.085938 639.652344 902.703125 639.65625 903.46875 C 639.664063 905.699219 636.3125 909.1875 634.527344 911.421875 C 631.59375 916.484375 628.582031 914.632813 627.386719 917.644531 C 627.363281 917.851563 627.351563 918.054688 627.351563 918.25 C 627.359375 922.226563 632.574219 923.59375 634.527344 923.59375 C 635.691406 923.59375 636.304688 924.148438 636.308594 925.257813 C 636.308594 926.132813 635.933594 927.355469 635.148438 928.925781 C 631.898438 933.984375 625.914063 933.984375 623.523438 935.214844 C 623.050781 935.445313 622.863281 935.847656 622.867188 936.339844 C 622.867188 938.316406 625.914063 941.777344 625.914063 941.777344 C 625.914063 941.777344 624.71875 944.171875 622.636719 945.609375 C 620.585938 947.109375 616.074219 946.222656 612.785156 946.839844 C 610.546875 947.214844 609.574219 949.226563 609.574219 951.292969 C 609.570313 952.214844 609.765625 953.144531 610.121094 953.945313 C 611.046875 956 612.929688 957.320313 612.9375 960.128906 C 612.9375 961.066406 612.730469 962.167969 612.210938 963.519531 C 610.339844 968.386719 605.679688 969.777344 602.855469 969.777344 C 602.582031 969.777344 602.328125 969.765625 602.09375 969.742188 C 601.089844 969.640625 600.445313 969.515625 599.832031 969.515625 C 598.8125 969.515625 597.867188 969.855469 595.460938 971.175781 C 593.03125 972.824219 590.972656 974.390625 587.777344 974.390625 C 585.933594 974.390625 583.714844 973.871094 580.824219 972.542969 C 575.59375 970.140625 574.890625 964.949219 574.890625 962.34375 C 574.890625 961.394531 574.984375 960.785156 574.984375 960.785156 C 572.558594 960.535156 570.042969 958.019531 570.050781 953.757813 C 570.050781 953.335938 570.078125 952.898438 570.128906 952.445313 C 571.082031 943.761719 580.347656 943.558594 584.828125 942.9375 C 589.269531 942.324219 590.160156 942.050781 594.019531 939.046875 C 597.921875 936.105469 602.980469 930.160156 605.371094 928.378906 C 607.765625 926.597656 611.046875 923.046875 611.046875 918.257813 C 611.046875 913.472656 609.164063 910.46875 605.882813 910.46875 C 602.636719 910.46875 599.660156 911.148438 594.878906 911.421875 C 594.335938 911.453125 593.785156 911.46875 593.226563 911.46875 C 588.894531 911.46875 584.242188 910.546875 581.816406 909.03125 C 579.648438 907.675781 578.542969 907.171875 578.128906 907.171875 C 577.988281 907.171875 577.929688 907.226563 577.925781 907.324219 C 577.917969 907.957031 580.519531 910.390625 581.953125 911.148438 C 585.511719 913.066406 589.136719 913.882813 590.738281 914.160156 C 592.421875 914.457031 593.183594 915.390625 593.1875 916.464844 C 593.191406 917.355469 592.675781 918.34375 591.730469 919.148438 C 589.753906 920.828125 586.707031 924.171875 581.511719 924.171875 C 581.222656 924.171875 580.925781 924.160156 580.621094 924.136719 C 580.425781 924.132813 580.234375 924.128906 580.046875 924.128906 C 577.699219 924.128906 576.121094 924.710938 576.128906 925.789063 C 576.132813 926.179688 576.339844 926.632813 576.796875 927.148438 C 578.296875 928.917969 579.855469 928.039063 579.855469 929.703125 C 579.855469 929.964844 579.816406 930.292969 579.734375 930.703125 C 578.535156 935.214844 573.988281 935.214844 571.90625 935.214844 C 569.820313 935.214844 566.027344 935.351563 563.941406 939.386719 C 560.761719 945.679688 557.855469 949.164063 554.128906 953.058594 C 552.246094 955.042969 553.582031 958.324219 552.351563 963.519531 C 550.425781 968.726563 545.722656 969.820313 542.292969 969.820313 C 540.859375 969.820313 539.644531 969.628906 538.949219 969.46875 C 538.429688 969.332031 538.015625 969.261719 537.652344 969.261719 C 536.394531 969.261719 535.796875 970.144531 533.480469 972.269531 C 531.902344 973.683594 529 974.71875 525.914063 974.71875 M 601.203125 848.59375 C 601.203125 848.59375 603.558594 855.773438 604.484375 859.328125 C 605.371094 862.882813 608.652344 874.5 615.488281 875.050781 C 616.609375 875.152344 617.703125 875.21875 618.757813 875.21875 C 624.132813 875.21875 628.59375 873.445313 631.59375 865.273438 C 631.652344 864.789063 631.679688 864.320313 631.679688 863.867188 C 631.683594 859.871094 629.535156 857.035156 627.386719 852.488281 C 625.210938 847.816406 617.398438 834.214844 617.40625 822.304688 C 617.40625 821.320313 617.460938 820.351563 617.574219 819.398438 C 619.078125 806.957031 622.941406 795.058594 628.277344 787.882813 C 631.316406 783.84375 633.863281 777.578125 633.867188 772.210938 C 633.867188 768.035156 632.328125 764.402344 628.277344 762.785156 C 627.285156 762.4375 626.054688 762.015625 624.808594 762.015625 C 623.136719 762.015625 621.433594 762.78125 620.238281 765.523438 C 618.246094 770.183594 617.609375 775.105469 614.007813 775.109375 C 613.910156 775.109375 613.8125 775.105469 613.710938 775.097656 C 611.046875 775.097656 609.542969 776.53125 609.234375 779.199219 C 608.960938 781.933594 608.035156 789.660156 608.035156 792.328125 C 608.035156 794.992188 606.84375 797.652344 602.363281 797.925781 C 602.015625 797.925781 601.867188 798.148438 601.863281 798.515625 C 601.855469 799.683594 603.339844 802.332031 604.484375 803.945313 C 605.949219 805.996094 608.652344 812.019531 608.652344 818.234375 C 608.652344 818.941406 608.65625 819.609375 608.65625 820.238281 C 608.65625 825.160156 608.417969 827.738281 604.175781 827.738281 C 604.175781 827.738281 603.613281 828.460938 603.613281 829.867188 C 603.613281 831.171875 604.097656 833.066406 605.949219 835.53125 C 609.851563 840.59375 612.515625 844.148438 614.601563 847.703125 C 615.050781 848.46875 615.25 849.222656 615.25 849.910156 C 615.246094 851.667969 613.925781 852.992188 612.089844 852.992188 C 611.3125 852.992188 610.445313 852.757813 609.542969 852.214844 C 605.679688 849.753906 601.203125 848.59375 601.203125 848.59375 M 572.175781 837.105469 C 572.175781 837.105469 573.042969 843.105469 577.515625 843.105469 C 577.742188 843.105469 577.980469 843.089844 578.230469 843.054688 C 580.894531 842.644531 579.152344 838.40625 581.546875 837.855469 C 582.253906 837.65625 582.949219 837.570313 583.683594 837.570313 C 585.4375 837.570313 587.417969 838.039063 590.328125 838.476563 C 590.328125 838.476563 590.605469 838.042969 590.605469 837.457031 C 590.609375 836.324219 589.59375 834.617188 583.632813 834.304688 C 583.410156 834.28125 583.195313 834.273438 582.992188 834.273438 C 579.78125 834.273438 578.882813 836.628906 578.882813 836.628906 C 578.882813 836.628906 578.527344 839.386719 576.390625 839.386719 C 575.410156 839.386719 574.050781 838.804688 572.175781 837.105469 M 553.40625 828.394531 C 553.40625 828.738281 553.632813 829.222656 554.027344 829.707031 C 554.761719 830.601563 556.089844 831.5 557.6875 831.5 C 557.742188 831.5 557.796875 831.5 557.855469 831.496094 C 561.585938 831.269531 564.324219 828.242188 564.320313 826.3125 C 564.316406 825.398438 563.695313 824.730469 562.261719 824.730469 C 560.800781 824.730469 560.730469 828.625 557.234375 828.625 C 556.484375 828.625 555.578125 828.445313 554.46875 828.011719 C 554.257813 827.941406 554.074219 827.910156 553.929688 827.910156 C 553.570313 827.910156 553.40625 828.101563 553.40625 828.394531 M 568.773438 808.429688 C 569.691406 808.429688 570.609375 808.664063 571.429688 809.144531 C 573.753906 810.648438 574.398438 814.613281 576.484375 814.613281 C 578.535156 814.613281 579.460938 814.34375 580.964844 813.519531 C 581.597656 813.105469 581.945313 812.566406 581.949219 812.117188 C 581.953125 811.640625 581.566406 811.269531 580.71875 811.269531 C 580.519531 811.269531 580.292969 811.289063 580.042969 811.332031 C 579.390625 811.484375 578.808594 811.613281 578.230469 811.613281 C 576.710938 811.613281 575.214844 810.71875 572.589844 806.957031 C 571.710938 805.667969 570.609375 805.125 569.453125 805.125 C 567.730469 805.125 565.894531 806.328125 564.519531 808.050781 C 563.738281 809.035156 562.933594 809.703125 561.640625 809.703125 C 560.78125 809.703125 559.714844 809.410156 558.300781 808.730469 C 557.78125 808.464844 557.332031 808.351563 556.980469 808.351563 C 556.429688 808.351563 556.113281 808.628906 556.113281 809.019531 C 556.113281 809.519531 556.636719 810.203125 557.855469 810.714844 C 559.175781 811.257813 560.316406 811.535156 561.339844 811.535156 C 562.773438 811.535156 563.980469 810.984375 565.136719 809.832031 C 566.160156 808.90625 567.46875 808.429688 568.773438 808.429688 M 589.40625 809.277344 C 589.871094 809.277344 590.386719 809.355469 590.949219 809.550781 C 590.949219 809.550781 592.296875 810.976563 593.777344 810.976563 C 594.074219 810.976563 594.375 810.921875 594.671875 810.78125 C 594.671875 810.78125 593.78125 806.957031 590.5 806.957031 C 587.9375 806.957031 586.109375 808.59375 586.109375 809.679688 C 586.109375 810 586.265625 810.273438 586.605469 810.441406 C 586.605469 810.441406 587.617188 809.277344 589.40625 809.277344 M 582.605469 735.90625 C 582.609375 737.039063 583.464844 738.3125 585.191406 738.3125 C 585.214844 738.3125 585.242188 738.3125 585.269531 738.3125 C 586.195313 738.3125 586.605469 737.699219 586.605469 736.945313 C 586.601563 735.753906 585.5625 734.210938 583.902344 734.210938 C 583.039063 734.355469 582.605469 735.09375 582.605469 735.90625 "/>
<path style=" stroke:none;fill-rule:nonzero;fill:rgb(75.299072%,62.399292%,30.198669%);fill-opacity:1;" d="M 419.273438 967.625 L 388.265625 967.625 L 388.265625 957.09375 L 334.90625 957.09375 L 334.90625 967.625 L 303.863281 967.625 L 303.863281 934.738281 L 419.273438 934.738281 L 419.273438 967.625 "/>
<path style=" stroke:none;fill-rule:nonzero;fill:rgb(75.299072%,62.399292%,30.198669%);fill-opacity:1;" d="M 848.457031 957.777344 C 837.347656 957.777344 828.324219 948.75 828.324219 937.675781 C 828.324219 926.53125 837.347656 917.507813 848.457031 917.507813 C 859.566406 917.507813 868.589844 926.53125 868.589844 937.675781 C 868.589844 948.75 859.566406 957.777344 848.457031 957.777344 "/>
<path style=" stroke:none;fill-rule:nonzero;fill:rgb(75.299072%,62.399292%,30.198669%);fill-opacity:1;" d="M 803.164063 957.777344 C 792.074219 957.777344 783.0625 948.785156 783.0625 937.738281 C 783.0625 937.71875 783.0625 937.695313 783.0625 937.675781 C 783.0625 926.53125 792.050781 917.507813 803.164063 917.507813 C 814.308594 917.507813 823.296875 926.53125 823.296875 937.675781 C 823.296875 948.75 814.273438 957.777344 803.164063 957.777344 "/>
<path style=" stroke:none;fill-rule:nonzero;fill:rgb(75.299072%,62.399292%,30.198669%);fill-opacity:1;" d="M 757.832031 957.777344 C 746.757813 957.777344 737.734375 948.75 737.734375 937.675781 C 737.734375 926.53125 746.757813 917.507813 757.832031 917.507813 C 768.976563 917.507813 778.003906 926.53125 778.003906 937.675781 C 778.003906 948.75 768.976563 957.777344 757.832031 957.777344 "/>
<path style=" stroke:none;fill-rule:nonzero;fill:rgb(75.299072%,62.399292%,30.198669%);fill-opacity:1;" d="M 712.574219 957.777344 C 701.464844 957.777344 692.4375 948.75 692.4375 937.675781 C 692.4375 926.53125 701.464844 917.507813 712.574219 917.507813 C 723.683594 917.507813 732.707031 926.53125 732.707031 937.675781 C 732.707031 948.75 723.683594 957.777344 712.574219 957.777344 "/>
<path style=" stroke:none;fill-rule:nonzero;fill:rgb(75.299072%,62.399292%,30.198669%);fill-opacity:1;" d="M 211.605469 957.777344 C 200.527344 957.777344 191.464844 948.75 191.464844 937.675781 C 191.464844 926.53125 200.527344 917.507813 211.605469 917.507813 C 222.746094 917.507813 231.734375 926.53125 231.734375 937.675781 C 231.734375 948.75 222.714844 957.777344 211.605469 957.777344 "/>
<path style=" stroke:none;fill-rule:nonzero;fill:rgb(75.299072%,62.399292%,30.198669%);fill-opacity:1;" d="M 166.308594 957.777344 C 155.230469 957.777344 146.207031 948.75 146.207031 937.675781 C 146.207031 926.53125 155.199219 917.507813 166.308594 917.507813 C 177.453125 917.507813 186.445313 926.53125 186.445313 937.675781 C 186.445313 948.75 177.421875 957.777344 166.308594 957.777344 "/>
<path style=" stroke:none;fill-rule:nonzero;fill:rgb(75.299072%,62.399292%,30.198669%);fill-opacity:1;" d="M 121.015625 957.777344 C 109.925781 957.777344 100.914063 948.785156 100.914063 937.738281 C 100.914063 937.71875 100.914063 937.695313 100.914063 937.675781 C 100.914063 926.53125 109.90625 917.507813 121.015625 917.507813 C 132.125 917.507813 141.144531 926.53125 141.144531 937.675781 C 141.144531 948.75 132.125 957.777344 121.015625 957.777344 "/>
<path style=" stroke:none;fill-rule:nonzero;fill:rgb(75.299072%,62.399292%,30.198669%);fill-opacity:1;" d="M 75.722656 957.777344 C 64.632813 957.777344 55.617188 948.785156 55.617188 937.738281 C 55.617188 937.71875 55.617188 937.695313 55.617188 937.675781 C 55.617188 926.53125 64.574219 917.507813 75.722656 917.507813 C 86.863281 917.507813 95.855469 926.53125 95.855469 937.675781 C 95.855469 948.75 86.863281 957.777344 75.722656 957.777344 "/>
<path style=" stroke:none;fill-rule:nonzero;fill:rgb(75.299072%,62.399292%,30.198669%);fill-opacity:1;" d="M 408.710938 919.222656 L 314.429688 919.222656 L 333.671875 755.542969 L 389.496094 755.542969 L 408.710938 919.222656 M 350.082031 864.113281 L 373.054688 864.113281 L 373.054688 855.289063 L 350.082031 855.289063 L 350.082031 864.113281 M 351.351563 806.269531 L 371.824219 806.269531 L 371.824219 798.890625 L 351.351563 798.890625 L 351.351563 806.269531 "/>
<path style=" stroke:none;fill-rule:nonzero;fill:rgb(75.299072%,62.399292%,30.198669%);fill-opacity:1;" d="M 840.046875 908.824219 C 829.722656 908.824219 821.3125 900.480469 821.3125 890.09375 C 821.3125 879.765625 829.691406 871.359375 840.046875 871.359375 C 850.40625 871.359375 858.742188 879.765625 858.742188 890.09375 C 858.742188 900.414063 850.40625 908.824219 840.046875 908.824219 "/>
<path style=" stroke:none;fill-rule:nonzero;fill:rgb(75.299072%,62.399292%,30.198669%);fill-opacity:1;" d="M 797.246094 908.824219 C 786.925781 908.824219 778.515625 900.480469 778.515625 890.09375 C 778.515625 879.765625 786.925781 871.359375 797.246094 871.359375 C 807.574219 871.359375 815.980469 879.765625 815.980469 890.09375 C 815.980469 900.414063 807.574219 908.824219 797.246094 908.824219 "/>
<path style=" stroke:none;fill-rule:nonzero;fill:rgb(75.299072%,62.399292%,30.198669%);fill-opacity:1;" d="M 754.414063 908.824219 C 744.113281 908.824219 735.679688 900.515625 735.683594 890.152344 C 735.683594 890.132813 735.683594 890.113281 735.683594 890.09375 C 735.683594 879.765625 744.054688 871.359375 754.414063 871.359375 C 764.777344 871.359375 773.148438 879.765625 773.148438 890.09375 C 773.148438 900.414063 764.777344 908.824219 754.414063 908.824219 "/>
<path style=" stroke:none;fill-rule:nonzero;fill:rgb(75.299072%,62.399292%,30.198669%);fill-opacity:1;" d="M 711.617188 908.824219 C 701.277344 908.824219 692.882813 900.515625 692.886719 890.152344 C 692.886719 890.132813 692.886719 890.113281 692.886719 890.09375 C 692.886719 879.765625 701.257813 871.359375 711.617188 871.359375 C 721.9375 871.359375 730.316406 879.765625 730.316406 890.09375 C 730.316406 900.414063 721.9375 908.824219 711.617188 908.824219 "/>
<path style=" stroke:none;fill-rule:nonzero;fill:rgb(75.299072%,62.399292%,30.198669%);fill-opacity:1;" d="M 212.5625 908.824219 C 202.234375 908.824219 193.863281 900.480469 193.863281 890.09375 C 193.863281 879.765625 202.234375 871.359375 212.5625 871.359375 C 222.914063 871.359375 231.292969 879.765625 231.292969 890.09375 C 231.292969 890.113281 231.292969 890.132813 231.292969 890.152344 C 231.296875 900.449219 222.894531 908.824219 212.5625 908.824219 "/>
<path style=" stroke:none;fill-rule:nonzero;fill:rgb(75.299072%,62.399292%,30.198669%);fill-opacity:1;" d="M 169.765625 908.824219 C 159.4375 908.824219 151.0625 900.480469 151.0625 890.09375 C 151.0625 879.765625 159.402344 871.359375 169.765625 871.359375 C 180.117188 871.359375 188.496094 879.765625 188.496094 890.09375 C 188.496094 890.113281 188.496094 890.132813 188.496094 890.152344 C 188.496094 900.449219 180.066406 908.824219 169.765625 908.824219 "/>
<path style=" stroke:none;fill-rule:nonzero;fill:rgb(75.299072%,62.399292%,30.198669%);fill-opacity:1;" d="M 126.960938 908.824219 C 116.570313 908.824219 108.230469 900.480469 108.230469 890.09375 C 108.230469 879.765625 116.570313 871.359375 126.960938 871.359375 C 137.320313 871.359375 145.695313 879.765625 145.695313 890.09375 C 145.695313 900.414063 137.320313 908.824219 126.960938 908.824219 "/>
<path style=" stroke:none;fill-rule:nonzero;fill:rgb(75.299072%,62.399292%,30.198669%);fill-opacity:1;" d="M 84.128906 908.824219 C 73.773438 908.824219 65.394531 900.480469 65.394531 890.09375 C 65.394531 879.765625 73.773438 871.359375 84.128906 871.359375 C 94.488281 871.359375 102.859375 879.765625 102.859375 890.09375 C 102.859375 890.113281 102.859375 890.132813 102.859375 890.152344 C 102.859375 900.449219 94.46875 908.824219 84.128906 908.824219 "/>
<path style=" stroke:none;fill-rule:nonzero;fill:rgb(75.299072%,62.399292%,30.198669%);fill-opacity:1;" d="M 831.605469 864.796875 C 822.066406 864.796875 814.308594 857.140625 814.308594 847.566406 C 814.308594 837.996094 822.066406 830.199219 831.605469 830.199219 C 841.207031 830.199219 848.933594 837.996094 848.933594 847.566406 C 848.933594 847.585938 848.933594 847.605469 848.933594 847.625 C 848.941406 857.171875 841.15625 864.796875 831.605469 864.796875 "/>
<path style=" stroke:none;fill-rule:nonzero;fill:rgb(75.299072%,62.399292%,30.198669%);fill-opacity:1;" d="M 791.097656 864.796875 C 781.523438 864.796875 773.765625 857.140625 773.765625 847.566406 C 773.765625 837.996094 781.523438 830.199219 791.097656 830.199219 C 800.664063 830.199219 808.390625 837.996094 808.390625 847.566406 C 808.390625 847.585938 808.390625 847.605469 808.390625 847.625 C 808.394531 857.171875 800.648438 864.796875 791.097656 864.796875 "/>
<path style=" stroke:none;fill-rule:nonzero;fill:rgb(75.299072%,62.399292%,30.198669%);fill-opacity:1;" d="M 750.550781 864.796875 C 740.980469 864.796875 733.222656 857.140625 733.222656 847.566406 C 733.222656 837.996094 740.980469 830.199219 750.550781 830.199219 C 760.121094 830.199219 767.847656 837.996094 767.847656 847.566406 C 767.847656 847.585938 767.847656 847.605469 767.847656 847.625 C 767.851563 857.171875 760.070313 864.796875 750.550781 864.796875 "/>
<path style=" stroke:none;fill-rule:nonzero;fill:rgb(75.299072%,62.399292%,30.198669%);fill-opacity:1;" d="M 710.007813 864.796875 C 700.460938 864.796875 692.710938 857.171875 692.714844 847.625 C 692.714844 847.605469 692.714844 847.585938 692.714844 847.566406 C 692.714844 837.996094 700.441406 830.199219 710.007813 830.199219 C 719.578125 830.199219 727.339844 837.996094 727.339844 847.566406 C 727.339844 857.140625 719.546875 864.796875 710.007813 864.796875 "/>
<path style=" stroke:none;fill-rule:nonzero;fill:rgb(75.299072%,62.399292%,30.198669%);fill-opacity:1;" d="M 214.164063 864.796875 C 204.59375 864.796875 196.835938 857.140625 196.835938 847.566406 C 196.835938 837.996094 204.59375 830.199219 214.164063 830.199219 C 223.738281 830.199219 231.464844 837.996094 231.464844 847.566406 C 231.464844 847.585938 231.464844 847.605469 231.464844 847.625 C 231.46875 857.171875 223.71875 864.796875 214.164063 864.796875 "/>
<path style=" stroke:none;fill-rule:nonzero;fill:rgb(75.299072%,62.399292%,30.198669%);fill-opacity:1;" d="M 173.621094 864.796875 C 164.050781 864.796875 156.292969 857.140625 156.292969 847.566406 C 156.292969 837.996094 164.050781 830.199219 173.621094 830.199219 C 183.195313 830.199219 190.957031 837.996094 190.957031 847.566406 C 190.957031 857.140625 183.195313 864.796875 173.621094 864.796875 "/>
<path style=" stroke:none;fill-rule:nonzero;fill:rgb(75.299072%,62.399292%,30.198669%);fill-opacity:1;" d="M 133.082031 864.796875 C 123.542969 864.796875 115.75 857.140625 115.75 847.566406 C 115.75 837.996094 123.542969 830.199219 133.082031 830.199219 C 142.652344 830.199219 150.414063 837.996094 150.414063 847.566406 C 150.414063 857.140625 142.652344 864.796875 133.082031 864.796875 "/>
<path style=" stroke:none;fill-rule:nonzero;fill:rgb(75.299072%,62.399292%,30.198669%);fill-opacity:1;" d="M 92.539063 864.796875 C 83 864.796875 75.242188 857.140625 75.242188 847.566406 C 75.242188 837.996094 83 830.199219 92.539063 830.199219 C 102.113281 830.199219 109.871094 837.996094 109.871094 847.566406 C 109.871094 857.140625 102.113281 864.796875 92.539063 864.796875 "/>
<path style=" stroke:none;fill-rule:nonzero;fill:rgb(75.299072%,62.399292%,30.198669%);fill-opacity:1;" d="M 822.375 820.015625 C 813.621094 820.015625 806.480469 812.835938 806.480469 804.082031 C 806.480469 795.332031 813.621094 788.222656 822.375 788.222656 C 831.191406 788.222656 838.304688 795.332031 838.304688 804.082031 C 838.304688 812.835938 831.191406 820.015625 822.375 820.015625 "/>
<path style=" stroke:none;fill-rule:nonzero;fill:rgb(75.299072%,62.399292%,30.198669%);fill-opacity:1;" d="M 784.390625 820.015625 C 775.640625 820.015625 768.519531 812.890625 768.5 804.183594 C 768.5 804.148438 768.5 804.117188 768.5 804.082031 C 768.5 795.332031 775.605469 788.222656 784.390625 788.222656 C 793.21875 788.222656 800.324219 795.332031 800.324219 804.082031 C 800.324219 812.835938 793.21875 820.015625 784.390625 820.015625 "/>
<path style=" stroke:none;fill-rule:nonzero;fill:rgb(75.299072%,62.399292%,30.198669%);fill-opacity:1;" d="M 746.417969 820.015625 C 737.667969 820.015625 730.542969 812.890625 730.519531 804.183594 C 730.519531 804.148438 730.519531 804.117188 730.519531 804.082031 C 730.519531 795.332031 737.632813 788.222656 746.417969 788.222656 C 755.203125 788.222656 762.34375 795.332031 762.34375 804.082031 C 762.34375 804.117188 762.34375 804.148438 762.34375 804.183594 C 762.324219 812.890625 755.167969 820.015625 746.417969 820.015625 "/>
<path style=" stroke:none;fill-rule:nonzero;fill:rgb(75.299072%,62.399292%,30.198669%);fill-opacity:1;" d="M 708.4375 820.015625 C 699.652344 820.015625 692.5625 812.890625 692.539063 804.183594 C 692.539063 804.148438 692.539063 804.117188 692.539063 804.082031 C 692.539063 795.332031 699.617188 788.222656 708.4375 788.222656 C 717.222656 788.222656 724.363281 795.332031 724.363281 804.082031 C 724.363281 812.835938 717.222656 820.015625 708.4375 820.015625 "/>
<path style=" stroke:none;fill-rule:nonzero;fill:rgb(75.299072%,62.399292%,30.198669%);fill-opacity:1;" d="M 215.773438 820.015625 C 206.957031 820.015625 199.84375 812.835938 199.84375 804.082031 C 199.84375 795.332031 206.957031 788.222656 215.773438 788.222656 C 224.558594 788.222656 231.667969 795.332031 231.667969 804.082031 C 231.667969 812.835938 224.558594 820.015625 215.773438 820.015625 "/>
<path style=" stroke:none;fill-rule:nonzero;fill:rgb(75.299072%,62.399292%,30.198669%);fill-opacity:1;" d="M 177.761719 820.015625 C 168.976563 820.015625 161.828125 812.835938 161.828125 804.082031 C 161.828125 795.332031 168.976563 788.222656 177.761719 788.222656 C 186.578125 788.222656 193.691406 795.332031 193.691406 804.082031 C 193.691406 812.835938 186.546875 820.015625 177.761719 820.015625 "/>
<path style=" stroke:none;fill-rule:nonzero;fill:rgb(75.299072%,62.399292%,30.198669%);fill-opacity:1;" d="M 139.78125 820.015625 C 130.996094 820.015625 123.855469 812.835938 123.855469 804.082031 C 123.855469 795.332031 130.960938 788.222656 139.78125 788.222656 C 148.566406 788.222656 155.714844 795.332031 155.714844 804.082031 C 155.714844 812.835938 148.53125 820.015625 139.78125 820.015625 "/>
<path style=" stroke:none;fill-rule:nonzero;fill:rgb(75.299072%,62.399292%,30.198669%);fill-opacity:1;" d="M 101.765625 820.015625 C 92.980469 820.015625 85.871094 812.835938 85.871094 804.082031 C 85.871094 795.332031 92.980469 788.222656 101.765625 788.222656 C 110.585938 788.222656 117.699219 795.332031 117.699219 804.082031 C 117.699219 812.835938 110.558594 820.015625 101.765625 820.015625 "/>
<path style=" stroke:none;fill-rule:nonzero;fill:rgb(75.299072%,62.399292%,30.198669%);fill-opacity:1;" d="M 814.816406 780.152344 C 806.851563 780.152344 800.339844 773.710938 800.324219 765.753906 C 800.324219 765.722656 800.324219 765.691406 800.324219 765.660156 C 800.324219 757.660156 806.785156 751.167969 814.816406 751.167969 C 822.816406 751.167969 829.3125 757.660156 829.3125 765.660156 C 829.3125 765.691406 829.3125 765.722656 829.3125 765.753906 C 829.300781 773.710938 822.785156 780.152344 814.816406 780.152344 "/>
<path style=" stroke:none;fill-rule:nonzero;fill:rgb(75.299072%,62.399292%,30.198669%);fill-opacity:1;" d="M 778.820313 780.152344 C 770.824219 780.152344 764.328125 773.660156 764.328125 765.660156 C 764.328125 757.660156 770.824219 751.167969 778.820313 751.167969 C 786.859375 751.167969 793.320313 757.660156 793.320313 765.660156 C 793.320313 773.660156 786.859375 780.152344 778.820313 780.152344 "/>
<path style=" stroke:none;fill-rule:nonzero;fill:rgb(75.299072%,62.399292%,30.198669%);fill-opacity:1;" d="M 742.824219 780.152344 C 734.792969 780.152344 728.332031 773.660156 728.332031 765.660156 C 728.332031 757.660156 734.792969 751.167969 742.824219 751.167969 C 750.859375 751.167969 757.355469 757.660156 757.355469 765.660156 C 757.355469 773.660156 750.828125 780.152344 742.824219 780.152344 "/>
<path style=" stroke:none;fill-rule:nonzero;fill:rgb(75.299072%,62.399292%,30.198669%);fill-opacity:1;" d="M 706.832031 780.152344 C 698.832031 780.152344 692.335938 773.660156 692.335938 765.660156 C 692.335938 757.660156 698.832031 751.167969 706.832031 751.167969 C 714.863281 751.167969 721.324219 757.660156 721.324219 765.660156 C 721.324219 773.660156 714.863281 780.152344 706.832031 780.152344 "/>
<path style=" stroke:none;fill-rule:nonzero;fill:rgb(75.299072%,62.399292%,30.198669%);fill-opacity:1;" d="M 217.34375 780.152344 C 209.3125 780.152344 202.816406 773.660156 202.816406 765.660156 C 202.816406 757.660156 209.3125 751.167969 217.34375 751.167969 C 225.34375 751.167969 231.839844 757.660156 231.839844 765.660156 C 231.839844 773.660156 225.34375 780.152344 217.34375 780.152344 "/>
<path style=" stroke:none;fill-rule:nonzero;fill:rgb(75.299072%,62.399292%,30.198669%);fill-opacity:1;" d="M 181.347656 780.152344 C 173.351563 780.152344 166.820313 773.660156 166.820313 765.660156 C 166.820313 757.660156 173.316406 751.167969 181.347656 751.167969 C 189.386719 751.167969 195.84375 757.660156 195.84375 765.660156 C 195.84375 765.691406 195.84375 765.722656 195.84375 765.753906 C 195.828125 773.710938 189.355469 780.152344 181.347656 780.152344 "/>
<path style=" stroke:none;fill-rule:nonzero;fill:rgb(75.299072%,62.399292%,30.198669%);fill-opacity:1;" d="M 145.351563 780.152344 C 137.320313 780.152344 130.859375 773.660156 130.859375 765.660156 C 130.859375 757.660156 137.320313 751.167969 145.351563 751.167969 C 153.390625 751.167969 159.847656 757.660156 159.847656 765.660156 C 159.847656 773.660156 153.390625 780.152344 145.351563 780.152344 "/>
<path style=" stroke:none;fill-rule:nonzero;fill:rgb(75.299072%,62.399292%,30.198669%);fill-opacity:1;" d="M 109.390625 780.152344 C 101.359375 780.152344 94.863281 773.660156 94.863281 765.660156 C 94.863281 757.660156 101.359375 751.167969 109.390625 751.167969 C 117.359375 751.167969 123.886719 757.660156 123.886719 765.660156 C 123.886719 773.660156 117.359375 780.152344 109.390625 780.152344 "/>
<path style=" stroke:none;fill-rule:nonzero;fill:rgb(75.299072%,62.399292%,30.198669%);fill-opacity:1;" d="M 568.371094 759.421875 C 568.125 759.421875 567.867188 759.40625 567.597656 759.371094 C 564.417969 758.960938 557.410156 758.6875 555.324219 758.410156 C 553.238281 758.070313 550.402344 756.289063 549.203125 753.355469 C 548.007813 750.347656 546.4375 749.871094 543.980469 749.183594 C 542.933594 748.863281 542.449219 748.199219 542.453125 747.507813 C 542.460938 746.40625 543.691406 745.230469 545.863281 745.230469 C 546.132813 745.230469 546.414063 745.246094 546.710938 745.285156 C 553.035156 746.175781 551.671875 750.347656 557.105469 753.898438 C 557.839844 754.398438 558.972656 754.550781 560.289063 754.550781 C 561.351563 754.550781 562.53125 754.453125 563.714844 754.351563 C 564.894531 754.253906 566.085938 754.152344 567.160156 754.152344 C 567.71875 754.152344 568.242188 754.179688 568.722656 754.246094 C 570.769531 754.519531 571.71875 755.691406 571.71875 756.851563 C 571.71875 758.144531 570.535156 759.421875 568.371094 759.421875 "/>
<path style=" stroke:none;fill-rule:nonzero;fill:rgb(75.299072%,62.399292%,30.198669%);fill-opacity:1;" d="M 388.882813 749.9375 L 334.257813 749.9375 L 318.738281 705.226563 C 321.085938 704.75 323.265625 704.550781 325.265625 704.550781 C 336 704.550781 341.710938 710.28125 341.710938 710.28125 C 346.050781 704.671875 353.5 697.839844 361.570313 697.839844 C 369.636719 697.839844 377.089844 704.671875 381.429688 710.28125 C 381.429688 710.28125 387.160156 704.550781 397.882813 704.550781 C 399.882813 704.550781 402.058594 704.75 404.402344 705.226563 L 388.882813 749.9375 "/>
<path style=" stroke:none;fill-rule:nonzero;fill:rgb(75.299072%,62.399292%,30.198669%);fill-opacity:1;" d="M 805.558594 740.296875 C 798.339844 740.296875 792.464844 734.480469 792.464844 727.238281 C 792.464844 719.988281 798.308594 714.113281 805.558594 714.113281 C 812.835938 714.113281 818.683594 719.988281 818.683594 727.238281 C 818.683594 727.269531 818.683594 727.296875 818.683594 727.324219 C 818.671875 734.527344 812.804688 740.296875 805.558594 740.296875 "/>
<path style=" stroke:none;fill-rule:nonzero;fill:rgb(75.299072%,62.399292%,30.198669%);fill-opacity:1;" d="M 772.324219 740.296875 C 765.144531 740.296875 759.277344 734.527344 759.273438 727.324219 C 759.273438 727.296875 759.273438 727.269531 759.273438 727.238281 C 759.273438 719.988281 765.082031 714.113281 772.324219 714.113281 C 779.574219 714.113281 785.453125 719.988281 785.453125 727.238281 C 785.453125 734.480469 779.574219 740.296875 772.324219 740.296875 "/>
<path style=" stroke:none;fill-rule:nonzero;fill:rgb(75.299072%,62.399292%,30.198669%);fill-opacity:1;" d="M 739.101563 740.296875 C 731.851563 740.296875 726.007813 734.480469 726.007813 727.238281 C 726.007813 719.988281 731.851563 714.113281 739.101563 714.113281 C 746.382813 714.113281 752.226563 719.988281 752.226563 727.238281 C 752.226563 734.480469 746.382813 740.296875 739.101563 740.296875 "/>
<path style=" stroke:none;fill-rule:nonzero;fill:rgb(75.299072%,62.399292%,30.198669%);fill-opacity:1;" d="M 705.875 740.296875 C 698.660156 740.296875 692.78125 734.480469 692.78125 727.238281 C 692.78125 719.988281 698.660156 714.113281 705.875 714.113281 C 713.121094 714.113281 718.96875 719.988281 718.96875 727.238281 C 718.96875 727.269531 718.96875 727.296875 718.96875 727.324219 C 718.957031 734.527344 713.09375 740.296875 705.875 740.296875 "/>
<path style=" stroke:none;fill-rule:nonzero;fill:rgb(75.299072%,62.399292%,30.198669%);fill-opacity:1;" d="M 218.304688 740.296875 C 211.082031 740.296875 205.222656 734.527344 205.210938 727.324219 C 205.210938 727.296875 205.210938 727.269531 205.210938 727.238281 C 205.210938 719.988281 211.054688 714.113281 218.304688 714.113281 C 225.550781 714.113281 231.394531 719.988281 231.394531 727.238281 C 231.394531 727.269531 231.394531 727.296875 231.394531 727.324219 C 231.382813 734.527344 225.492188 740.296875 218.304688 740.296875 "/>
<path style=" stroke:none;fill-rule:nonzero;fill:rgb(75.299072%,62.399292%,30.198669%);fill-opacity:1;" d="M 185.078125 740.296875 C 177.863281 740.296875 171.949219 734.480469 171.949219 727.238281 C 171.949219 719.988281 177.828125 714.113281 185.078125 714.113281 C 192.320313 714.113281 198.164063 719.988281 198.164063 727.238281 C 198.164063 734.480469 192.320313 740.296875 185.078125 740.296875 "/>
<path style=" stroke:none;fill-rule:nonzero;fill:rgb(75.299072%,62.399292%,30.198669%);fill-opacity:1;" d="M 151.847656 740.296875 C 144.636719 740.296875 138.722656 734.480469 138.722656 727.238281 C 138.722656 719.988281 144.605469 714.113281 151.847656 714.113281 C 159.0625 714.113281 164.941406 719.988281 164.941406 727.238281 C 164.941406 734.480469 159.0625 740.296875 151.847656 740.296875 "/>
<path style=" stroke:none;fill-rule:nonzero;fill:rgb(75.299072%,62.399292%,30.198669%);fill-opacity:1;" d="M 118.621094 740.296875 C 111.375 740.296875 105.496094 734.480469 105.496094 727.238281 C 105.496094 719.988281 111.375 714.113281 118.621094 714.113281 C 125.832031 714.113281 131.75 719.988281 131.75 727.238281 C 131.75 734.480469 125.832031 740.296875 118.621094 740.296875 "/>
<path style=" stroke:none;fill-rule:nonzero;fill:rgb(75.299072%,62.399292%,30.198669%);fill-opacity:1;" d="M 591.390625 726.828125 L 575.496094 726.828125 C 573.609375 726.828125 572.714844 725.570313 572.714844 724.292969 C 572.710938 722.972656 573.65625 721.632813 575.429688 721.632813 C 575.453125 721.632813 575.476563 721.632813 575.496094 721.632813 C 577.820313 721.632813 588.484375 721.632813 591.390625 721.632813 C 592.820313 721.632813 593.507813 722.890625 593.507813 724.171875 C 593.507813 725.488281 592.78125 726.828125 591.390625 726.828125 "/>
<path style=" stroke:none;fill-rule:nonzero;fill:rgb(75.299072%,62.399292%,30.198669%);fill-opacity:1;" d="M 583.046875 719.378906 C 578.890625 719.378906 577.441406 715.339844 577.441406 715.339844 C 577.238281 717.257813 575.769531 719.308594 572.25 719.308594 C 567.835938 719.308594 567.1875 715.339844 567.1875 715.339844 C 566.527344 717.410156 564.808594 717.777344 563.664063 717.777344 C 563.03125 717.777344 562.574219 717.664063 562.574219 717.664063 C 562.574219 717.664063 561.652344 716.265625 561.652344 714.660156 C 561.65625 713.382813 562.242188 711.972656 564.347656 711.035156 C 569.101563 708.914063 577.441406 705.769531 581.238281 704.128906 C 581.886719 703.921875 582.519531 703.820313 583.148438 703.820313 C 583.777344 703.820313 584.398438 703.921875 585.03125 704.128906 C 588.175781 705.628906 597.097656 708.914063 601.886719 711.035156 C 603.996094 711.984375 604.578125 713.410156 604.582031 714.695313 C 604.582031 716.285156 603.695313 717.664063 603.695313 717.664063 C 603.695313 717.664063 603.234375 717.777344 602.597656 717.777344 C 601.441406 717.777344 599.707031 717.410156 599.046875 715.339844 C 599.046875 715.339844 598.742188 719.308594 594.296875 719.308594 C 590.773438 719.308594 589.304688 717.527344 588.761719 715.339844 C 588.761719 715.339844 587.457031 719.378906 583.148438 719.378906 C 583.113281 719.378906 583.078125 719.378906 583.046875 719.378906 "/>
<path style=" stroke:none;fill-rule:nonzero;fill:rgb(75.299072%,62.399292%,30.198669%);fill-opacity:1;" d="M 797.96875 703.714844 C 791.539063 703.714844 786.308594 698.523438 786.308594 692.097656 C 786.308594 685.601563 791.507813 680.40625 797.96875 680.40625 C 804.460938 680.40625 809.691406 685.601563 809.691406 692.097656 C 809.691406 698.523438 804.460938 703.714844 797.96875 703.714844 "/>
<path style=" stroke:none;fill-rule:nonzero;fill:rgb(75.299072%,62.399292%,30.198669%);fill-opacity:1;" d="M 766.820313 703.714844 C 760.359375 703.714844 755.101563 698.523438 755.101563 692.097656 C 755.101563 685.601563 760.359375 680.40625 766.820313 680.40625 C 773.285156 680.40625 778.550781 685.601563 778.550781 692.097656 C 778.550781 698.523438 773.285156 703.714844 766.820313 703.714844 "/>
<path style=" stroke:none;fill-rule:nonzero;fill:rgb(75.299072%,62.399292%,30.198669%);fill-opacity:1;" d="M 735.648438 703.714844 C 729.1875 703.714844 723.957031 698.523438 723.957031 692.097656 C 723.957031 685.601563 729.1875 680.40625 735.648438 680.40625 C 742.144531 680.40625 747.375 685.601563 747.375 692.097656 C 747.375 698.523438 742.144531 703.714844 735.648438 703.714844 "/>
<path style=" stroke:none;fill-rule:nonzero;fill:rgb(75.299072%,62.399292%,30.198669%);fill-opacity:1;" d="M 704.472656 703.714844 C 698.042969 703.714844 692.816406 698.523438 692.816406 692.097656 C 692.816406 685.601563 698.042969 680.40625 704.472656 680.40625 C 710.964844 680.40625 716.195313 685.601563 716.195313 692.097656 C 716.195313 692.121094 716.195313 692.148438 716.195313 692.171875 C 716.1875 698.566406 710.941406 703.714844 704.472656 703.714844 "/>
<path style=" stroke:none;fill-rule:nonzero;fill:rgb(75.299072%,62.399292%,30.198669%);fill-opacity:1;" d="M 219.671875 703.714844 C 213.207031 703.714844 207.976563 698.523438 207.976563 692.097656 C 207.976563 685.601563 213.207031 680.40625 219.671875 680.40625 C 226.164063 680.40625 231.359375 685.601563 231.359375 692.097656 C 231.359375 698.523438 226.128906 703.714844 219.671875 703.714844 "/>
<path style=" stroke:none;fill-rule:nonzero;fill:rgb(75.299072%,62.399292%,30.198669%);fill-opacity:1;" d="M 188.496094 703.714844 C 182.066406 703.714844 176.835938 698.523438 176.835938 692.097656 C 176.835938 685.601563 182.066406 680.40625 188.496094 680.40625 C 194.992188 680.40625 200.21875 685.601563 200.21875 692.097656 C 200.21875 698.523438 194.992188 703.714844 188.496094 703.714844 "/>
<path style=" stroke:none;fill-rule:nonzero;fill:rgb(75.299072%,62.399292%,30.198669%);fill-opacity:1;" d="M 157.351563 703.714844 C 150.949219 703.714844 145.671875 698.566406 145.65625 692.171875 C 145.65625 692.148438 145.65625 692.121094 145.65625 692.097656 C 145.65625 685.601563 150.890625 680.40625 157.351563 680.40625 C 163.8125 680.40625 169.042969 685.601563 169.042969 692.097656 C 169.042969 698.523438 163.777344 703.714844 157.351563 703.714844 "/>
<path style=" stroke:none;fill-rule:nonzero;fill:rgb(75.299072%,62.399292%,30.198669%);fill-opacity:1;" d="M 126.210938 703.714844 C 119.71875 703.714844 114.484375 698.523438 114.484375 692.097656 C 114.484375 685.601563 119.71875 680.40625 126.210938 680.40625 C 132.640625 680.40625 137.863281 685.601563 137.863281 692.097656 C 137.863281 692.121094 137.863281 692.148438 137.863281 692.171875 C 137.859375 698.566406 132.613281 703.714844 126.210938 703.714844 "/>
<path style=" stroke:none;fill-rule:nonzero;fill:rgb(75.299072%,62.399292%,30.198669%);fill-opacity:1;" d="M 376.851563 542.675781 C 357.433594 542.675781 342.289063 539.839844 331.863281 534.507813 L 331.863281 406.214844 C 341.261719 401.289063 356.785156 398.042969 375.175781 398.042969 C 412.195313 398.042969 429.390625 414.382813 429.390625 435.4375 C 429.390625 453.828125 415.511719 463.644531 404.230469 466.921875 C 416.914063 470.171875 433.460938 482.410156 433.460938 501.828125 C 433.460938 529.820313 411.785156 542.675781 376.851563 542.675781 M 363.308594 520.832031 C 366.625 522.0625 370.492188 522.882813 376.027344 522.882813 C 391.34375 522.882813 400.332031 516.761719 400.332031 500.632813 C 400.332031 483.878906 392.574219 475.675781 369.910156 475.675781 L 363.351563 475.675781 L 363.308594 520.832031 M 363.351563 459.78125 L 369.910156 459.78125 C 390.730469 459.78125 397.667969 453.011719 397.667969 437.660156 C 397.667969 423.40625 390.523438 416.640625 375.414063 416.640625 C 370.492188 416.640625 367.039063 417.046875 363.351563 418.28125 L 363.351563 459.78125 "/>
<path style=" stroke:none;fill-rule:nonzero;fill:rgb(75.299072%,62.399292%,30.198669%);fill-opacity:1;" d="M 559.191406 540.664063 L 592.347656 540.664063 L 592.347656 400.09375 L 559.191406 400.09375 Z M 559.191406 540.664063 "/>
<path style=" stroke:none;fill-rule:nonzero;fill:rgb(75.299072%,62.399292%,30.198669%);fill-opacity:1;" d="M 480.566406 540.664063 L 448.089844 540.664063 L 448.054688 406.214844 C 458.105469 401.289063 473.011719 398.042969 490.785156 398.042969 C 529.859375 398.042969 545.003906 417.867188 545.003906 442.992188 C 544.972656 467.355469 529.957031 488.589844 494.242188 488.589844 C 491.316406 488.589844 488.25 488.449219 485.042969 488.152344 L 480.566406 487.742188 L 480.566406 540.664063 M 480.566406 468.738281 L 485.042969 468.941406 C 486.136719 468.996094 487.191406 469.023438 488.210938 469.023438 C 506.699219 469.023438 513.484375 460.21875 513.484375 442.757813 C 513.484375 425.21875 507.363281 416.84375 490.582031 416.84375 C 486.101563 416.84375 482.410156 417.664063 480.566406 418.488281 L 480.566406 468.738281 "/>
<g clip-path="url(#clip2)" clip-rule="nonzero">
<path style=" stroke:none;fill-rule:nonzero;fill:rgb(75.299072%,62.399292%,30.198669%);fill-opacity:1;" d="M 605.203125 296 L 320.613281 296 L 320.613281 269.949219 C 261.03125 268.691406 212.664063 227.769531 212.664063 188.121094 C 212.664063 123.171875 339.964844 74.421875 432.296875 66.421875 L 432.296875 52.578125 C 432.296875 41.839844 438.898438 36.578125 442.996094 33.710938 C 441.425781 30.601563 440.535156 27.140625 440.535156 23.449219 C 440.535156 10.871094 450.753906 0.621094 463.300781 0.621094 C 475.917969 0.621094 486.136719 10.871094 486.136719 23.449219 C 486.136719 27.28125 485.179688 30.871094 483.535156 34.011719 C 487.605469 36.988281 493.761719 42.25 493.761719 52.578125 L 493.761719 66.449219 C 586.058594 74.488281 713.1875 123.238281 713.1875 188.121094 C 713.1875 227.769531 664.816406 268.691406 605.203125 269.949219 L 605.203125 296 M 561.378906 257.550781 C 568.992188 258.460938 576.410156 258.910156 583.570313 258.910156 C 634.75 258.910156 672.636719 236.089844 673.058594 198.03125 C 673.0625 197.761719 673.0625 197.5 673.0625 197.230469 C 673 143.371094 604.824219 139.710938 604.824219 139.710938 C 612.226563 148.378906 624.636719 164.460938 624.648438 186.71875 C 624.652344 186.761719 624.652344 186.808594 624.648438 186.851563 C 624.648438 236.449219 561.378906 257.550781 561.378906 257.550781 M 251.117188 197.230469 C 251.117188 197.5 251.117188 197.761719 251.121094 198.03125 C 251.539063 236.089844 289.421875 258.910156 340.605469 258.910156 C 347.765625 258.910156 355.183594 258.460938 362.800781 257.550781 C 362.800781 257.550781 299.523438 236.449219 299.523438 186.851563 C 299.523438 164.53125 311.933594 148.398438 319.351563 139.710938 C 319.351563 139.710938 251.175781 143.371094 251.117188 197.230469 M 482.992188 235.21875 C 520.832031 235.21875 551.527344 209.308594 551.527344 177.351563 C 551.527344 145.390625 520.832031 119.441406 482.992188 119.441406 L 482.992188 235.21875 M 442.859375 235.21875 L 442.824219 119.441406 C 404.984375 119.441406 374.320313 145.390625 374.320313 177.351563 C 374.320313 209.308594 404.984375 235.21875 442.859375 235.21875 "/>
</g>
</g>
</svg>
